<svg xmlns="http://www.w3.org/2000/svg" style="display:none">
  <symbol id="thinking" viewBox="0 0 24 24"><g fill="none" stroke="currentColor" stroke-width="1.75" stroke-linecap="round" stroke-linejoin="round"><path d="M12 3a6 6 0 0 0-3.5 10.9c.5.4.8 1 .9 1.6h5.2c.1-.6.4-1.2.9-1.6A6 6 0 0 0 12 3Z"/><path d="M9.5 19h5"/><path d="M10.5 21.5h3"/></g></symbol>
  <symbol id="building" viewBox="0 0 24 24"><g fill="none" stroke="currentColor" stroke-width="1.75" stroke-linecap="round" stroke-linejoin="round"><rect x="4" y="9" width="7" height="11" rx="1"/><rect x="13" y="4" width="7" height="16" rx="1"/><path d="M3 20h18"/></g></symbol>
  <symbol id="knowledge" viewBox="0 0 24 24"><g fill="none" stroke="currentColor" stroke-width="1.75" stroke-linecap="round" stroke-linejoin="round"><path d="M4 5a2 2 0 0 1 2-2h11v15H6a2 2 0 0 0-2 2Z"/><path d="M4 19a2 2 0 0 0 2 2h11"/><path d="M9 7h5"/></g></symbol>
  <symbol id="ai" viewBox="0 0 24 24"><g fill="none" stroke="currentColor" stroke-width="1.75" stroke-linecap="round" stroke-linejoin="round"><rect x="7" y="7" width="10" height="10" rx="1.5"/><rect x="10" y="10" width="4" height="4" rx="0.5"/><path d="M9 3v2M12 3v2M15 3v2M9 19v2M12 19v2M15 19v2M3 9h2M3 12h2M3 15h2M19 9h2M19 12h2M19 15h2"/></g></symbol>
  <symbol id="governance" viewBox="0 0 24 24"><g fill="none" stroke="currentColor" stroke-width="1.75" stroke-linecap="round" stroke-linejoin="round"><path d="M12 3l7 3v5c0 4.5-3 7.5-7 9-4-1.5-7-4.5-7-9V6l7-3Z"/><path d="M9 12l2 2 4-4"/></g></symbol>
  <symbol id="framework" viewBox="0 0 24 24"><g fill="none" stroke="currentColor" stroke-width="1.75" stroke-linecap="round" stroke-linejoin="round"><rect x="4" y="4" width="16" height="16" rx="1"/><path d="M4 10h16M4 15h16M10 4v16"/></g></symbol>
  <symbol id="concept" viewBox="0 0 24 24"><g fill="none" stroke="currentColor" stroke-width="1.75" stroke-linecap="round" stroke-linejoin="round"><circle cx="12" cy="12" r="2.5"/><circle cx="5" cy="6" r="1.5"/><circle cx="19" cy="8" r="1.5"/><circle cx="17" cy="18" r="1.5"/><path d="M10.3 10.3 6.2 7M13.9 11l3.4-2.1M13.4 13.7l2.7 3"/></g></symbol>
  <symbol id="principle" viewBox="0 0 24 24"><g fill="none" stroke="currentColor" stroke-width="1.75" stroke-linecap="round" stroke-linejoin="round"><circle cx="12" cy="12" r="9"/><path d="M15.5 8.5l-2 5-5 2 2-5 5-2Z"/></g></symbol>
  <symbol id="architecture" viewBox="0 0 24 24"><g fill="none" stroke="currentColor" stroke-width="1.75" stroke-linecap="round" stroke-linejoin="round"><path d="M12 3l9 5-9 5-9-5 9-5Z"/><path d="M3 12l9 5 9-5"/><path d="M3 16.5l9 5 9-5"/></g></symbol>
  <symbol id="connect" viewBox="0 0 24 24"><g fill="none" stroke="currentColor" stroke-width="1.75" stroke-linecap="round" stroke-linejoin="round"><circle cx="6" cy="12" r="2.5"/><circle cx="18" cy="6" r="2.5"/><circle cx="18" cy="18" r="2.5"/><path d="M8.2 10.8l7.6-3.6M8.2 13.2l7.6 3.6"/></g></symbol>
  <symbol id="timeline" viewBox="0 0 24 24"><g fill="none" stroke="currentColor" stroke-width="1.75" stroke-linecap="round" stroke-linejoin="round"><path d="M4 12h16"/><circle cx="7" cy="12" r="2"/><circle cx="12" cy="12" r="2"/><circle cx="17" cy="12" r="2"/></g></symbol>
  <symbol id="reuse" viewBox="0 0 24 24"><g fill="none" stroke="currentColor" stroke-width="1.75" stroke-linecap="round" stroke-linejoin="round"><path d="M4 12a8 8 0 0 1 13.7-5.6L20 8"/><path d="M20 4v4h-4"/><path d="M20 12a8 8 0 0 1-13.7 5.6L4 16"/><path d="M4 20v-4h4"/></g></symbol>
  <symbol id="callout" viewBox="0 0 24 24"><g fill="none" stroke="currentColor" stroke-width="1.75" stroke-linecap="round" stroke-linejoin="round"><circle cx="12" cy="12" r="9"/><path d="M12 11v5"/><path d="M12 8h.01"/></g></symbol>
  <symbol id="search" viewBox="0 0 24 24"><g fill="none" stroke="currentColor" stroke-width="1.75" stroke-linecap="round" stroke-linejoin="round"><circle cx="11" cy="11" r="6"/><path d="M20 20l-4.3-4.3"/></g></symbol>
</svg>
